<mxfile host="app.diagrams.net" agent="Mozilla/5.0 (Windows NT 10.0; Win64; x64) AppleWebKit/537.36 (KHTML, like Gecko) Chrome/141.0.0.0 Safari/537.36" version="28.2.5">
  <diagram name="Page-1" id="XWdg4BXyk0OAKznfG6OP">
    <mxGraphModel dx="889" dy="561" grid="1" gridSize="10" guides="1" tooltips="1" connect="1" arrows="1" fold="1" page="1" pageScale="1" pageWidth="850" pageHeight="1100" math="0" shadow="0">
      <root>
        <mxCell id="0" />
        <mxCell id="1" parent="0" />
        <mxCell id="m0ALYSGnHEnHxEo8LG8C-1" value="ATM Machine" style="swimlane;whiteSpace=wrap;html=1;" vertex="1" parent="1">
          <mxGeometry x="320" y="80" width="270" height="430" as="geometry" />
        </mxCell>
        <mxCell id="m0ALYSGnHEnHxEo8LG8C-7" value="Check Balance" style="ellipse;whiteSpace=wrap;html=1;" vertex="1" parent="m0ALYSGnHEnHxEo8LG8C-1">
          <mxGeometry x="70" y="45" width="120" height="80" as="geometry" />
        </mxCell>
        <mxCell id="m0ALYSGnHEnHxEo8LG8C-11" value="Withdraw Money" style="ellipse;whiteSpace=wrap;html=1;" vertex="1" parent="m0ALYSGnHEnHxEo8LG8C-1">
          <mxGeometry x="80" y="320" width="120" height="80" as="geometry" />
        </mxCell>
        <mxCell id="m0ALYSGnHEnHxEo8LG8C-13" value="Deposit Money" style="ellipse;whiteSpace=wrap;html=1;" vertex="1" parent="m0ALYSGnHEnHxEo8LG8C-1">
          <mxGeometry x="75" y="180" width="120" height="80" as="geometry" />
        </mxCell>
        <mxCell id="m0ALYSGnHEnHxEo8LG8C-2" value="Customer" style="shape=umlActor;verticalLabelPosition=bottom;verticalAlign=top;html=1;outlineConnect=0;" vertex="1" parent="1">
          <mxGeometry x="50" y="215" width="30" height="60" as="geometry" />
        </mxCell>
        <mxCell id="m0ALYSGnHEnHxEo8LG8C-4" value="ATM Machine" style="whiteSpace=wrap;html=1;aspect=fixed;" vertex="1" parent="1">
          <mxGeometry x="710" y="205" width="80" height="80" as="geometry" />
        </mxCell>
        <mxCell id="m0ALYSGnHEnHxEo8LG8C-8" value="" style="endArrow=none;html=1;rounded=0;entryX=0;entryY=0.5;entryDx=0;entryDy=0;" edge="1" parent="1" target="m0ALYSGnHEnHxEo8LG8C-7">
          <mxGeometry width="50" height="50" relative="1" as="geometry">
            <mxPoint x="90" y="240" as="sourcePoint" />
            <mxPoint x="450" y="270" as="targetPoint" />
          </mxGeometry>
        </mxCell>
        <mxCell id="m0ALYSGnHEnHxEo8LG8C-9" value="" style="endArrow=none;html=1;rounded=0;endSize=5;exitX=1;exitY=0.5;exitDx=0;exitDy=0;" edge="1" parent="1" source="m0ALYSGnHEnHxEo8LG8C-7">
          <mxGeometry width="50" height="50" relative="1" as="geometry">
            <mxPoint x="530" y="245" as="sourcePoint" />
            <mxPoint x="709" y="242" as="targetPoint" />
          </mxGeometry>
        </mxCell>
        <mxCell id="m0ALYSGnHEnHxEo8LG8C-14" value="" style="endArrow=none;html=1;rounded=0;entryX=-0.06;entryY=0.485;entryDx=0;entryDy=0;entryPerimeter=0;" edge="1" parent="1" target="m0ALYSGnHEnHxEo8LG8C-13">
          <mxGeometry width="50" height="50" relative="1" as="geometry">
            <mxPoint x="100" y="250" as="sourcePoint" />
            <mxPoint x="400" y="175" as="targetPoint" />
          </mxGeometry>
        </mxCell>
        <mxCell id="m0ALYSGnHEnHxEo8LG8C-15" value="" style="endArrow=none;html=1;rounded=0;entryX=0;entryY=0.5;entryDx=0;entryDy=0;" edge="1" parent="1" target="m0ALYSGnHEnHxEo8LG8C-11">
          <mxGeometry width="50" height="50" relative="1" as="geometry">
            <mxPoint x="90" y="250" as="sourcePoint" />
            <mxPoint x="398" y="309" as="targetPoint" />
          </mxGeometry>
        </mxCell>
        <mxCell id="m0ALYSGnHEnHxEo8LG8C-16" value="" style="endArrow=none;html=1;rounded=0;endSize=5;exitX=1;exitY=0.5;exitDx=0;exitDy=0;entryX=0.008;entryY=0.593;entryDx=0;entryDy=0;entryPerimeter=0;" edge="1" parent="1" source="m0ALYSGnHEnHxEo8LG8C-13" target="m0ALYSGnHEnHxEo8LG8C-4">
          <mxGeometry width="50" height="50" relative="1" as="geometry">
            <mxPoint x="520" y="175" as="sourcePoint" />
            <mxPoint x="719" y="252" as="targetPoint" />
          </mxGeometry>
        </mxCell>
        <mxCell id="m0ALYSGnHEnHxEo8LG8C-17" value="" style="endArrow=none;html=1;rounded=0;endSize=5;exitX=1.048;exitY=0.595;exitDx=0;exitDy=0;exitPerimeter=0;entryX=0.008;entryY=0.598;entryDx=0;entryDy=0;entryPerimeter=0;" edge="1" parent="1" source="m0ALYSGnHEnHxEo8LG8C-11" target="m0ALYSGnHEnHxEo8LG8C-4">
          <mxGeometry width="50" height="50" relative="1" as="geometry">
            <mxPoint x="525" y="310" as="sourcePoint" />
            <mxPoint x="729" y="262" as="targetPoint" />
          </mxGeometry>
        </mxCell>
      </root>
    </mxGraphModel>
  </diagram>
</mxfile>
